<?xml version="1.0" encoding="UTF-8" standalone="no"?>
<!-- Created with Inkscape (http://www.inkscape.org/) -->
<svg xmlns:svg="http://www.w3.org/2000/svg" xmlns="http://www.w3.org/2000/svg" version="1.0" width="600" height="500" id="svg2">
  <defs id="defs4"/>
  <g id="layer1">
    <path d="M -14.285713 41.42857 A 45.714287 41.42857 0 1 1  -105.71429,41.42857 A 45.714287 41.42857 0 1 1  -14.285713 41.42857 z" transform="matrix(0.875, 0, 0, 0.965517, 152.5, 60)" style="opacity: 1; fill: none; stroke: rgb(0, 0, 0); stroke-width: 1.74075;" id="path21060"/>
    <path d="M -14.285713 41.42857 A 45.714287 41.42857 0 1 1  -105.71429,41.42857 A 45.714287 41.42857 0 1 1  -14.285713 41.42857 z" transform="matrix(0.875, 0, 0, 0.965517, 552.5, 360)" style="opacity: 1; fill: none; stroke: rgb(0, 0, 0); stroke-width: 1.74075;" id="path22048"/>
    <path d="M -14.285713 41.42857 A 45.714287 41.42857 0 1 1  -105.71429,41.42857 A 45.714287 41.42857 0 1 1  -14.285713 41.42857 z" transform="matrix(0.875, 0, 0, 0.965517, 552.5, 60)" style="opacity: 1; fill: none; stroke: rgb(0, 0, 0); stroke-width: 1.74075;" id="path22045"/>
    <path d="M -14.285713 41.42857 A 45.714287 41.42857 0 1 1  -105.71429,41.42857 A 45.714287 41.42857 0 1 1  -14.285713 41.42857 z" transform="matrix(0.875, 0, 0, 0.965517, 152.5, 360)" style="opacity: 1; fill: none; stroke: rgb(0, 0, 0); stroke-width: 1.74075;" id="path22032"/>
    <text x="85.625" y="113.545" style="font-size: 40px; fill: rgb(0, 0, 0); fill-opacity: 1; font-family: Times New Roman;" id="text15969" xml:space="preserve"><tspan x="85.625" y="113.545" id="tspan15971">A</tspan></text>
    <text x="487.422" y="113.242" style="font-size: 40px; fill: rgb(0, 0, 0); fill-opacity: 1; font-family: Times New Roman;" id="text15985" xml:space="preserve"><tspan x="487.422" y="113.242" id="tspan15987">B</tspan></text>
    <text x="86.6309" y="413.242" style="font-size: 40px; fill: rgb(0, 0, 0); fill-opacity: 1; font-family: Times New Roman;" id="text15989" xml:space="preserve"><tspan x="86.6309" y="413.242" id="tspan15991">C</tspan></text>
    <text x="485.977" y="413.242" style="font-size: 40px; fill: rgb(0, 0, 0); fill-opacity: 1; font-family: Times New Roman;" id="text15993" xml:space="preserve"><tspan x="485.977" y="413.242" id="tspan15995">D</tspan></text>
    <text x="280.283" y="57.0312" style="font-size: 40px; fill: rgb(0, 0, 0); fill-opacity: 1; font-family: Times New Roman;" id="text15997" xml:space="preserve"><tspan x="280.283" y="57.0312" id="tspan15999">20</tspan></text>
    <text x="278.486" y="470" style="font-size: 40px; fill: rgb(0, 0, 0); fill-opacity: 1; font-family: Times New Roman;" id="text16001" xml:space="preserve"><tspan x="278.486" y="470" id="tspan16003">12</tspan></text>
    <text x="29.375" y="263.516" style="font-size: 40px; fill: rgb(0, 0, 0); fill-opacity: 1; font-family: Times New Roman;" id="text16005" xml:space="preserve"><tspan x="29.375" y="263.516" id="tspan16007">42</tspan></text>
    <text x="531.387" y="263.281" style="font-size: 40px; fill: rgb(0, 0, 0); fill-opacity: 1; font-family: Times New Roman;" id="text16009" xml:space="preserve"><tspan x="531.387" y="263.281" id="tspan16011">34</tspan></text>
    <text x="166.379" y="309.531" style="font-size: 40px; fill: rgb(0, 0, 0); fill-opacity: 1; font-family: Times New Roman;" id="text16013" xml:space="preserve"><tspan x="166.379" y="309.531" id="tspan16015">30</tspan></text>
    <text x="393.379" y="309.531" style="font-size: 40px; fill: rgb(0, 0, 0); fill-opacity: 1; font-family: Times New Roman;" id="text16017" xml:space="preserve"><tspan x="393.379" y="309.531" id="tspan16019">35</tspan></text>
    <path d="M 139.9375,98.40625 C 139.95822,98.934528 140,99.466674 140,100 C 140,100.53333 139.95822,101.06547 139.9375,101.59375 L 460.0625,101.59375 C 460.04178,101.06547 460,100.53333 460,100 C 460,99.466674 460.04178,98.934528 460.0625,98.40625 L 139.9375,98.40625 z M 132.9375,122.6875 C 132.32297,123.57735 131.68276,124.44558 131,125.28125 L 297.3125,250 L 131,374.71875 C 131.68276,375.55442 132.32297,376.42265 132.9375,377.3125 L 300,252 L 467.0625,377.3125 C 467.67703,376.42265 468.31724,375.55442 469,374.71875 L 302.6875,250 L 469,125.28125 C 468.31292,124.44029 467.68048,123.58331 467.0625,122.6875 L 300,248 L 132.9375,122.6875 z M 98.40625,139.9375 L 98.40625,360.0625 C 98.934528,360.04178 99.466674,360 100,360 C 100.53333,360 101.06547,360.04178 101.59375,360.0625 L 101.59375,139.9375 C 101.06547,139.95822 100.53333,140 100,140 C 99.466674,140 98.934528,139.95822 98.40625,139.9375 z M 498.40625,139.9375 L 498.40625,360.0625 C 498.93453,360.04178 499.46667,360 500,360 C 500.53333,360 501.06547,360.04178 501.59375,360.0625 L 501.59375,139.9375 C 501.06547,139.95822 500.53333,140 500,140 C 499.46667,140 498.93453,139.95822 498.40625,139.9375 z M 139.9375,398.40625 C 139.95822,398.93453 140,399.46667 140,400 C 140,400.53333 139.95822,401.06547 139.9375,401.59375 L 460.0625,401.59375 C 460.04178,401.06547 460,400.53333 460,400 C 460,399.46667 460.04178,398.93453 460.0625,398.40625 L 139.9375,398.40625 z " style="fill: rgb(0, 0, 0);" id="rect2360"/>
  </g>
</svg>